Coordinates
version=1
nRows=6
nColumns=63
inDegrees=yes

Units are S.I. units (second, meters, Newtons, ...)
If the header above contains a line with 'inDegrees', this indicates whether rotational values are in degrees (yes) or radians (no).

endheader
time	pelvis_tilt	pelvis_list	pelvis_rotation	pelvis_tx	pelvis_ty	pelvis_tz	hip_flexion_r	hip_adduction_r	hip_rotation_r	knee_angle_r	knee_angle_r_beta	ankle_angle_r	subtalar_angle_r	mtp_angle_r	hip_flexion_l	hip_adduction_l	hip_rotation_l	knee_angle_l	knee_angle_l_beta	ankle_angle_l	subtalar_angle_l	mtp_angle_l	L5_S1_Flex_Ext	L5_S1_Lat_Bending	L5_S1_axial_rotation	L4_L5_Flex_Ext	L4_L5_Lat_Bending	L4_L5_axial_rotation	L3_L4_Flex_Ext	L3_L4_Lat_Bending	L3_L4_axial_rotation	L2_L3_Flex_Ext	L2_L3_Lat_Bending	L2_L3_axial_rotation	L1_L2_Flex_Ext	L1_L2_Lat_Bending	L1_L2_axial_rotation	L1_T12_Flex_Ext	L1_T12_Lat_Bending	L1_T12_axial_rotation	Abs_r3	Abs_r2	Abs_r1	Abs_t1	Abs_t2	neck_flexion	neck_bending	neck_rotation	arm_flex_r	arm_add_r	arm_rot_r	elbow_flex_r	pro_sup_r	wrist_flex_r	wrist_dev_r	arm_flex_l	arm_add_l	arm_rot_l	elbow_flex_l	pro_sup_l	wrist_flex_l	wrist_dev_l
      3.75000000	    -56.12200629	     -8.41381753	      4.68895128	     -0.27957452	      1.06782281	     -0.04297597	    105.57583656	    -11.57780220	    -12.46612740	     61.37248408	      1.07115192	      9.91672281	     -0.18740079	      0.00000000	    108.58964052	      0.42969617	      8.65362219	     95.18789436	      1.66134216	      8.63700843	     -6.38677789	      0.00000000	     -0.09064523	      1.41782546	     -0.77978735	     -0.16833726	      1.88570786	     -0.82852406	     -0.14892105	      3.44730082	     -0.82852406	     -0.10359843	      3.44730082	     -0.68231393	     -0.08417316	      2.89122967	     -0.63357722	     -0.05179468	      2.19621163	     -0.58484051	     -0.64746982	     16.03872513	     -4.33694330	      0.00000000	      0.00000000	     -0.00000000	      0.00000000	      0.00000000	     64.28949550	    -13.34992347	     20.58347813	     40.49453408	     24.25877179	      0.00000000	      5.00006856	     59.56630600	    -10.59139361	      8.75076504	     42.54061844	     31.58722826	      0.00000000	      5.00006856
      3.75800000	    -56.09579685	     -8.37048440	      4.35155584	     -0.27869583	      1.06719819	     -0.04263346	    104.37621031	    -11.00550957	    -12.77614547	     59.71388548	      1.04220391	      9.27254760	     -0.26284392	      0.00000000	    109.58712160	     -0.00571925	      8.52387661	     96.90242768	      1.69126642	      9.72659683	     -6.95815003	      0.00000000	     -0.08915474	      1.41018777	     -0.72077520	     -0.16556926	      1.87554974	     -0.76582365	     -0.14647232	      3.42873055	     -0.76582365	     -0.10189495	      3.42873055	     -0.63067830	     -0.08278909	      2.87565491	     -0.58562985	     -0.05094302	      2.18438086	     -0.54058140	     -0.63682337	     15.95232612	     -4.00873545	      0.00000000	      0.00000000	     -0.00000000	      0.00000000	      0.00000000	     64.17709395	    -13.31802486	     20.43987647	     40.41592890	     24.20260879	      0.00000000	      5.00006758	     59.42584549	    -10.63367198	      8.88160127	     42.76721793	     31.58024371	      0.00000000	      5.00006758
      3.76700000	    -56.04087907	     -8.33311884	      4.12509272	     -0.27771944	      1.06654006	     -0.04234938	    103.16875773	    -10.53948923	    -13.08395391	     58.13902975	      1.01471749	      8.60437923	     -0.27474031	      0.00000000	    110.61606770	     -0.32781053	      8.42750600	     98.55767272	      1.72015589	     10.42469496	     -7.30646185	      0.00000000	     -0.08953220	      1.40205027	     -0.69107161	     -0.16627024	      1.86472686	     -0.73426358	     -0.14709245	      3.40894503	     -0.73426358	     -0.10232635	      3.40894503	     -0.60468766	     -0.08313960	      2.85906091	     -0.56149568	     -0.05115870	      2.17177587	     -0.51830371	     -0.63951953	     15.86027306	     -3.84353296	      0.00000000	      0.00000000	     -0.00000000	      0.00000000	      0.00000000	     64.02943586	    -13.23078546	     20.31724700	     40.40804292	     24.14314236	      0.00000000	      5.00006645	     59.30757337	    -10.70769718	      8.95302778	     42.89616615	     31.56039781	      0.00000000	      5.00006645
      3.77500000	    -55.98491245	     -8.28597893	      3.92033184	     -0.27672894	      1.06585907	     -0.04205026	    101.95303531	    -10.08389455	    -13.38286840	     56.57066391	      0.98734435	      7.93588389	     -0.20666378	      0.00000000	    111.68220977	     -0.61550307	      8.32397994	    100.14319485	      1.74782847	     10.84795373	     -7.50959946	      0.00000000	     -0.08923427	      1.39230295	     -0.66673522	     -0.16571696	      1.85176292	     -0.70840617	     -0.14660298	      3.38524538	     -0.70840617	     -0.10198585	      3.38524538	     -0.58339332	     -0.08286294	      2.83918417	     -0.54172237	     -0.05098846	      2.15667726	     -0.50005142	     -0.63739146	     15.75000938	     -3.70818128	      0.00000000	      0.00000000	     -0.00000000	      0.00000000	      0.00000000	     63.89030730	    -13.13436595	     20.19682448	     40.40313632	     24.07562987	      0.00000000	      5.00006513	     59.17433721	    -10.78419814	      9.00917985	     43.00412257	     31.53273166	      0.00000000	      5.00006513
      3.78300000	    -55.92133092	     -8.21013361	      3.70605853	     -0.27571158	      1.06516567	     -0.04162818	    100.73092627	     -9.59629721	    -13.62618560	     55.01310035	      0.96015973	      7.27236896	     -0.03579331	      0.00000000	    112.76540686	     -0.89505291	      8.22214945	    101.65906249	      1.77428535	     11.00504729	     -7.59935551	      0.00000000	     -0.08950862	      1.37610838	     -0.63719225	     -0.16622645	      1.83022414	     -0.67701677	     -0.14705371	      3.34586991	     -0.67701677	     -0.10229940	      3.34586991	     -0.55754322	     -0.08311770	      2.80616020	     -0.51771871	     -0.05114522	      2.13159188	     -0.47789419	     -0.63935110	     15.56681319	     -3.54387215	      0.00000000	      0.00000000	     -0.00000000	      0.00000000	      0.00000000	     63.73031044	    -13.06707716	     20.07847857	     40.35269680	     24.01258649	      0.00000000	      5.00006397	     59.05138813	    -10.86323326	      9.08823305	     43.14028469	     31.51245754	      0.00000000	      5.00006397
      3.79200000	    -55.85617094	     -8.05390661	      3.68466779	     -0.27482221	      1.06455838	     -0.04137920	     99.53661902	     -9.29643099	    -13.76422846	     53.48732937	      0.93353001	      6.62193613	      0.18350698	      0.00000000	    113.82070817	     -0.99791668	      7.96817060	    103.00638355	      1.79780054	     10.99775098	     -7.58581049	      0.00000000	     -0.08927855	      1.34775302	     -0.64343054	     -0.16579920	      1.79251151	     -0.68364495	     -0.14667573	      3.27692669	     -0.68364495	     -0.10203646	      3.27692669	     -0.56300172	     -0.08290406	      2.74833796	     -0.52278731	     -0.05101376	      2.08766943	     -0.48257291	     -0.63770777	     15.24605170	     -3.57856764	      0.00000000	      0.00000000	     -0.00000000	      0.00000000	      0.00000000	     63.56511351	    -12.99481575	     20.01701203	     40.32239185	     23.97801126	      0.00000000	      5.00006335	     58.97199314	    -10.96532461	      9.15133810	     43.22642799	     31.50475910	      0.00000000	      5.00006335
